HIERARCHY
ROOT Hips
{
 OFFSET 0.000000 0.000000 0.000000
 CHANNELS 6 Xposition Yposition Zposition Yrotation Xrotation Zrotation
 JOINT Chest
 {
  OFFSET 0.000000 12.953391 -0.028419
  CHANNELS 3 Yrotation Xrotation Zrotation
  JOINT Chest2
  {
   OFFSET 0.000000 10.280254 0.051622
   CHANNELS 3 Yrotation Xrotation Zrotation
   JOINT Chest3
   {
    OFFSET 0.000000 9.287180 0.000000
    CHANNELS 3 Yrotation Xrotation Zrotation
    JOINT Chest4
    {
     OFFSET 0.000000 9.287180 0.000000
     CHANNELS 3 Yrotation Xrotation Zrotation
     JOINT Neck
     {
      OFFSET 0.000000 13.296264 0.000000
      CHANNELS 3 Yrotation Xrotation Zrotation
      JOINT Head
      {
       OFFSET 0.000000 8.959264 0.099003
       CHANNELS 3 Yrotation Xrotation Zrotation
       End Site
       {
        OFFSET 0.000000 17.121337 0.039303
       }
      }
     }
     JOINT RightCollar
     {
      OFFSET -3.193511 7.451388 0.000000
      CHANNELS 3 Yrotation Xrotation Zrotation
      JOINT RightShoulder
      {
       OFFSET -15.792092 0.000000 0.000000
       CHANNELS 3 Yrotation Xrotation Zrotation
       JOINT RightElbow
       {
        OFFSET -31.151839 0.000000 0.000000
        CHANNELS 3 Yrotation Xrotation Zrotation
        JOINT RightWrist
        {
         OFFSET -25.536298 0.000000 0.002321
         CHANNELS 3 Yrotation Xrotation Zrotation
         End Site
         {
          OFFSET -19.133213 0.000000 0.000000
         }
        }
       }
      }
     }
     JOINT LeftCollar
     {
      OFFSET 3.193511 7.451388 0.000000
      CHANNELS 3 Yrotation Xrotation Zrotation
      JOINT LeftShoulder
      {
       OFFSET 15.792092 0.000000 0.000000
       CHANNELS 3 Yrotation Xrotation Zrotation
       JOINT LeftElbow
       {
        OFFSET 31.151839 0.000000 0.000000
        CHANNELS 3 Yrotation Xrotation Zrotation
        JOINT LeftWrist
        {
         OFFSET 25.536298 0.000000 0.002321
         CHANNELS 3 Yrotation Xrotation Zrotation
         End Site
         {
          OFFSET 19.133213 0.000000 0.000000
         }
        }
       }
      }
     }
    }
   }
  }
 }
 JOINT RightHip
 {
  OFFSET -10.745749 0.139252 0.014209
  CHANNELS 3 Yrotation Xrotation Zrotation
  JOINT RightKnee
  {
   OFFSET 0.000000 -43.743899 -0.006071
   CHANNELS 3 Yrotation Xrotation Zrotation
   JOINT RightAnkle
   {
    OFFSET 0.000000 -43.214199 0.089931
    CHANNELS 3 Yrotation Xrotation Zrotation
    JOINT RightToe
    {
     OFFSET 0.000000 -9.699830 19.151588
     CHANNELS 3 Yrotation Xrotation Zrotation
     End Site
     {
      OFFSET 0.000000 -1.292898 4.893873
     }
    }
   }
  }
 }
 JOINT LeftHip
 {
  OFFSET 10.745749 0.139252 0.014209
  CHANNELS 3 Yrotation Xrotation Zrotation
  JOINT LeftKnee
  {
   OFFSET 0.000000 -43.743899 -0.006071
   CHANNELS 3 Yrotation Xrotation Zrotation
   JOINT LeftAnkle
   {
    OFFSET 0.000000 -43.214199 0.089931
    CHANNELS 3 Yrotation Xrotation Zrotation
    JOINT LeftToe
    {
     OFFSET 0.000000 -9.699830 19.151588
     CHANNELS 3 Yrotation Xrotation Zrotation
     End Site
     {
      OFFSET 0.000000 -1.292898 4.893873
     }
    }
   }
  }
 }
}
MOTION
Frames: 7
Frame Time: 0.016667
-1.129409 100.110023 136.452129 74.220095 -5.157831 7.445595 2.166597 11.693710 7.294001 0.772889 5.230485 3.169394 0.772889 5.230485 3.169394 0.552089 3.927000 2.368765 -8.552265 22.938137 5.206841 -16.749184 7.600331 11.575540 15.309294 4.172665 4.663103 13.778481 -31.182119 59.435853 -0.562726 13.530802 -13.056116 -0.928128 25.094550 -52.638774 -1.936481 -5.060560 -9.551046 -4.698251 1.149488 -54.351648 -102.992895 43.830933 -72.356547 -15.407996 12.826108 20.772404 -6.289951 2.304567 -2.859260 -1.979958 4.885921 -0.536975 -14.527860 -2.376946 -2.431710 0.000000 0.000000 0.000000 9.629139 -4.015315 -1.180285 -1.830112 17.014756 -0.256080 -8.111375 -1.925844 -6.501564 0.000000 0.000000 0.000000
-1.231930 100.076747 136.317794 74.320187 -5.085117 7.447014 2.191206 11.674010 7.284380 0.784344 5.222074 3.164671 0.784346 5.222076 3.164671 0.560763 3.920748 2.365144 -8.548085 22.947392 5.201351 -16.739232 7.615685 11.563405 15.176444 4.208499 4.742975 13.808860 -31.123029 59.346998 -0.446432 13.468078 -13.093451 -0.865985 25.146318 -52.606063 -1.964347 -5.002587 -9.503478 -4.653533 1.161795 -54.353077 -103.327017 43.882259 -72.544782 -15.411156 12.812353 20.729310 -6.171429 2.193828 -2.929402 -2.416900 4.792039 -0.579810 -14.263202 -2.283925 -2.405119 -0.000000 -0.000000 0.000000 9.519981 -4.100391 -1.248102 -1.665940 17.007929 -0.179420 -7.468176 -2.899070 -7.169069 0.000000 0.000000 0.000000
-1.334451 100.043472 136.183458 74.420271 -5.012407 7.448560 2.215792 11.654335 7.274680 0.795788 5.213668 3.159914 0.795789 5.213670 3.159914 0.569425 3.914496 2.361497 -8.543895 22.956649 5.195874 -16.729256 7.631029 11.551283 15.043805 4.244448 4.823052 13.838898 -31.063957 59.258233 -0.330178 13.405266 -13.130847 -0.803756 25.198036 -52.573330 -1.992052 -4.944662 -9.455793 -4.608816 1.174093 -54.354559 -103.661553 43.933040 -72.733385 -15.414365 12.798607 20.686206 -6.052897 2.083346 -3.000121 -2.853860 4.698557 -0.622555 -13.998497 -2.191212 -2.377787 -0.000000 -0.000000 0.000000 9.410849 -4.185539 -1.315734 -1.501791 17.000808 -0.102771 -6.812872 -3.863286 -7.850098 0.000000 0.000000 0.000000
-1.433564 100.018499 136.037212 74.527481 -4.953187 7.448118 2.231946 11.639145 7.269517 0.803312 5.207142 3.157342 0.803312 5.207142 3.157342 0.575119 3.909634 2.359517 -8.538941 22.973056 5.187757 -16.716437 7.658942 11.533264 14.917857 4.267764 4.901903 13.845571 -31.007701 59.171078 -0.216407 13.367884 -13.185063 -0.744453 25.264522 -52.507036 -2.020874 -4.885213 -9.412424 -4.579480 1.190968 -54.361480 -103.946211 43.981458 -72.892545 -15.406220 12.805646 20.648425 -5.936566 1.974960 -3.073267 -3.263394 4.629405 -0.655590 -13.769196 -2.101464 -2.351087 0.000000 0.000000 0.000000 9.398369 -4.240358 -1.410102 -1.310841 17.087128 0.048242 -6.328015 -4.708296 -8.177555 0.000000 0.000000 0.000000
-1.527517 100.007654 135.871204 74.652915 -4.911338 7.452187 2.230385 11.629692 7.269022 0.802793 5.202913 3.157235 0.802793 5.202912 3.157234 0.574754 3.906457 2.359449 -8.532420 23.000489 5.174126 -16.698159 7.705909 11.503465 14.797350 4.274585 4.977127 13.821681 -30.960020 59.088487 -0.101863 13.356224 -13.258721 -0.674795 25.341907 -52.385827 -2.050083 -4.820870 -9.375653 -4.573582 1.216671 -54.375973 -104.158032 44.036553 -73.002285 -15.389044 12.851562 20.612813 -5.813603 1.863617 -3.152925 -3.645581 4.601601 -0.680982 -13.597619 -2.016298 -2.325897 0.000000 -0.000000 -0.000000 9.547491 -4.247009 -1.573782 -1.056182 17.274050 0.342876 -6.197071 -5.406266 -7.873011 -0.000000 0.000000 -0.000000
-1.618062 100.005112 135.693286 74.785480 -4.882983 7.454207 2.220417 11.624688 7.273141 0.798368 5.200555 3.159347 0.798369 5.200554 3.159346 0.571433 3.904669 2.361073 -8.525134 23.035085 5.157885 -16.677029 7.765459 11.467808 14.683410 4.268705 5.051060 13.774582 -30.915360 59.007451 0.010333 13.369940 -13.349027 -0.607710 25.434036 -52.230907 -2.080477 -4.754976 -9.343222 -4.583117 1.246982 -54.395796 -104.319666 44.089877 -73.082353 -15.360371 12.918221 20.582588 -5.692766 1.754482 -3.235003 -4.000346 4.598166 -0.697245 -13.461424 -1.933937 -2.301812 0.000000 -0.000000 0.000000 9.793009 -4.221938 -1.764391 -0.770842 17.550220 0.715610 -6.251496 -6.000496 -7.205952 0.000000 -0.000000 0.000000
-1.707048 100.001701 135.515107 74.899016 -4.869895 7.432418 2.221525 11.624768 7.286229 0.798526 5.200670 3.165105 0.798526 5.200670 3.165105 0.571501 3.904765 2.365389 -8.518718 23.072377 5.145058 -16.658011 7.830720 11.438110 14.586030 4.248838 5.129325 13.703061 -30.859612 58.920546 0.108118 13.433508 -13.464689 -0.585029 25.567611 -52.072646 -2.115638 -4.696013 -9.312751 -4.599371 1.273791 -54.419757 -104.449139 44.113508 -73.162457 -15.301625 12.971973 20.572609 -5.602720 1.664485 -3.308736 -4.300092 4.592151 -0.689411 -13.329093 -1.851897 -2.278326 0.000000 0.000000 0.000000 10.036534 -4.187383 -1.881692 -0.532272 17.984311 1.039930 -6.148411 -6.490239 -6.633795 -0.000000 -0.000000 0.000000
